<?xml version="1.0" standalone="no"?>
<svg xmlns="http://www.w3.org/2000/svg" version="1.0" viewBox="0 0 512 512">
<g transform="translate(0,512) scale(0.1,-0.1)" fill="#000000" stroke="none">
<path d="M1156 4789 c-229 -34 -451 -158 -586 -326 -85 -107 -156 -253 -180
-373 -19 -91 -20 -147 -20 -1450 0 -1450 -1 -1419 49 -1563 11 -32 37 -88 57
-125 20 -37 43 -80 52 -97 14 -27 161 -216 186 -240 109 -102 242 -170 402
-205 88 -19 129 -19 1495 -17 l1404 3 75 25 c100 35 161 64 245 117 82 51 212
183 261 264 56 91 137 316 154 423 7 48 10 501 8 1450 l-3 1380 -23 75 c-103
334 -347 569 -672 646 -70 17 -168 18 -1460 20 -762 1 -1412 -2 -1444 -7z"/>
</g>
</svg>
